<svg xmlns="http://www.w3.org/2000/svg" width="56" height="56" viewBox="0 0 56 56" fill="none"><path d="M48.51 15.2385L29.26 4.69912C28.8737 4.48774 28.4404 4.37695 28 4.37695C27.5596 4.37695 27.1263 4.48774 26.74 4.69912L7.49 15.2385C7.07704 15.4645 6.73244 15.7973 6.49229 16.2022C6.25214 16.607 6.12528 17.069 6.125 17.5397V38.461C6.12528 38.9317 6.25214 39.3937 6.49229 39.7986C6.73244 40.2035 7.07704 40.5363 7.49 40.7622L26.74 51.3016C27.126 51.514 27.5594 51.6253 28 51.6253C28.4406 51.6253 28.874 51.514 29.26 51.3016L48.51 40.7622C48.923 40.5363 49.2676 40.2035 49.5077 39.7986C49.7479 39.3937 49.8747 38.9317 49.875 38.461V17.5397C49.8747 17.069 49.7479 16.607 49.5077 16.2022C49.2676 15.7973 48.923 15.4645 48.51 15.2385ZM27.58 6.23475C27.7084 6.1631 27.853 6.12549 28 6.12549C28.147 6.12549 28.2916 6.1631 28.42 6.23475L47.3966 16.6254L39.0469 21.1951C39.0072 21.1622 38.9648 21.1329 38.92 21.1076L19.67 10.5682L27.58 6.23475ZM28 27.2347L8.60344 16.6254L17.8412 11.5657L37.2378 22.1838L28 27.2347ZM8.33 39.2223C8.19256 39.1471 8.07784 39.0363 7.9978 38.9017C7.91777 38.767 7.87536 38.6133 7.875 38.4566V18.2201L27.125 28.7551V49.5166L8.33 39.2223ZM47.67 39.2223L28.875 49.5035V28.7551L37.625 23.9666V33.2504C37.625 33.4824 37.7172 33.705 37.8813 33.8691C38.0454 34.0332 38.2679 34.1254 38.5 34.1254C38.7321 34.1254 38.9546 34.0332 39.1187 33.8691C39.2828 33.705 39.375 33.4824 39.375 33.2504V23.0085L48.125 18.2201V38.461C48.1246 38.6177 48.0822 38.7714 48.0022 38.906C47.9222 39.0407 47.8074 39.1514 47.67 39.2266V39.2223Z" fill="black"></path></svg>