<svg xmlns="http://www.w3.org/2000/svg" width="56" height="56" viewBox="0 0 56 56" fill="none"><path d="M48.0791 25.0206L44.625 23.87V12.25C44.625 11.5538 44.3484 10.8861 43.8562 10.3938C43.3639 9.90156 42.6962 9.625 42 9.625H28.875V5.25C28.875 5.01794 28.7828 4.79538 28.6187 4.63128C28.4546 4.46719 28.2321 4.375 28 4.375C27.7679 4.375 27.5454 4.46719 27.3813 4.63128C27.2172 4.79538 27.125 5.01794 27.125 5.25V9.625H14C13.3038 9.625 12.6361 9.90156 12.1438 10.3938C11.6516 10.8861 11.375 11.5538 11.375 12.25V23.87L7.91875 25.0206C7.39609 25.1951 6.94159 25.5296 6.61965 25.9768C6.29771 26.424 6.12465 26.9612 6.125 27.5122V33.25C6.125 38.6006 9.91375 43.4809 17.0822 47.3638C20.4774 49.1744 24.0666 50.5951 27.7812 51.5988C27.9206 51.6336 28.0663 51.6336 28.2056 51.5988C31.9225 50.5955 35.5139 49.1748 38.9113 47.3638C46.0863 43.4809 49.875 38.6006 49.875 33.25V27.5122C49.8752 26.9609 49.7018 26.4235 49.3795 25.9763C49.0571 25.5291 48.6021 25.1947 48.0791 25.0206ZM13.125 12.25C13.125 12.0179 13.2172 11.7954 13.3813 11.6313C13.5454 11.4672 13.7679 11.375 14 11.375H42C42.2321 11.375 42.4546 11.4672 42.6187 11.6313C42.7828 11.7954 42.875 12.0179 42.875 12.25V23.2859L28.2756 18.4209C28.097 18.3598 27.903 18.3598 27.7244 18.4209L13.125 23.2859V12.25ZM48.125 33.25C48.125 44.0387 30.17 49.2537 28 49.8444C25.83 49.2537 7.875 44.0387 7.875 33.25V27.5122C7.87468 27.3285 7.93219 27.1493 8.03938 27.0001C8.14656 26.8509 8.29799 26.7393 8.47219 26.6809L27.125 20.4641V36.75C27.125 36.9821 27.2172 37.2046 27.3813 37.3687C27.5454 37.5328 27.7679 37.625 28 37.625C28.2321 37.625 28.4546 37.5328 28.6187 37.3687C28.7828 37.2046 28.875 36.9821 28.875 36.75V20.4641L47.5256 26.6875C47.7002 26.7455 47.8521 26.857 47.9597 27.0062C48.0673 27.1554 48.1252 27.3348 48.125 27.5188V33.25Z" fill="black"></path></svg>