<svg width="182" height="39" viewBox="0 0 182 39" fill="none" xmlns="http://www.w3.org/2000/svg">
<path d="M18.511 38.0333C15.9443 38.0333 13.5462 37.5666 11.3166 36.6333C9.08694 35.6741 7.11657 34.3648 5.40546 32.7055C3.72027 31.0463 2.39805 29.1148 1.43879 26.9111C0.479532 24.7074 -9.75728e-05 22.3481 -9.75728e-05 19.8333C-9.75728e-05 17.3185 0.479532 14.9592 1.43879 12.7555C2.39805 10.5518 3.72027 8.62035 5.40546 6.96109C7.11657 5.30183 9.08694 4.00553 11.3166 3.0722C13.5462 2.11294 15.9443 1.63331 18.511 1.63331C21.0777 1.63331 23.4758 2.11294 25.7055 3.0722C27.9351 4.00553 29.8925 5.30183 31.5777 6.96109C33.2888 8.62035 34.624 10.5518 35.5832 12.7555C36.5425 14.9592 37.0221 17.3185 37.0221 19.8333C37.0221 22.3481 36.5425 24.7074 35.5832 26.9111C34.624 29.1148 33.2888 31.0463 31.5777 32.7055C29.8925 34.3648 27.9351 35.6741 25.7055 36.6333C23.4758 37.5666 21.0777 38.0333 18.511 38.0333ZM18.511 31.2666C20.611 31.2666 22.5036 30.7611 24.1888 29.75C25.874 28.7129 27.2092 27.3259 28.1943 25.5889C29.2055 23.8518 29.711 21.9333 29.711 19.8333C29.711 17.7074 29.2055 15.7889 28.1943 14.0778C27.2092 12.3407 25.874 10.9666 24.1888 9.95554C22.5036 8.9185 20.611 8.39998 18.511 8.39998C16.411 8.39998 14.5055 8.9185 12.7943 9.95554C11.1092 10.9666 9.77398 12.3407 8.78879 14.0778C7.80361 15.7889 7.31101 17.7074 7.31101 19.8333C7.31101 21.9333 7.80361 23.8518 8.78879 25.5889C9.77398 27.3259 11.1092 28.7129 12.7943 29.75C14.5055 30.7611 16.411 31.2666 18.511 31.2666ZM53.1343 38.1111C50.8269 38.1111 48.7139 37.5537 46.7954 36.4389C44.8769 35.3241 43.3472 33.8203 42.2065 31.9278C41.0917 30.0352 40.5343 27.9481 40.5343 25.6666C40.5343 23.3592 41.0917 21.2722 42.2065 19.4055C43.3472 17.5129 44.8769 16.0092 46.7954 14.8944C48.7139 13.7796 50.8269 13.2222 53.1343 13.2222C54.7417 13.2222 56.2584 13.4944 57.6843 14.0389C59.1361 14.5574 60.4195 15.3352 61.5343 16.3722L59.7843 23.2555C59.1361 22.1926 58.2676 21.2722 57.1787 20.4944C56.1158 19.6907 54.8584 19.2889 53.4065 19.2889C52.188 19.2889 51.0991 19.5741 50.1398 20.1444C49.1806 20.7148 48.4287 21.4796 47.8843 22.4389C47.3398 23.3981 47.0676 24.4741 47.0676 25.6666C47.0676 26.8333 47.3398 27.9092 47.8843 28.8944C48.4287 29.8537 49.1806 30.6185 50.1398 31.1889C51.0991 31.7592 52.188 32.0444 53.4065 32.0444C54.8584 32.0444 56.1158 31.6555 57.1787 30.8778C58.2676 30.0741 59.1361 29.1407 59.7843 28.0778L61.5343 34.9611C60.4195 35.9981 59.1361 36.7889 57.6843 37.3333C56.2584 37.8518 54.7417 38.1111 53.1343 38.1111ZM65.0525 37.3333V-2.14577e-05H71.8192V15.75C72.6488 14.9203 73.5951 14.2981 74.6581 13.8833C75.747 13.4426 76.9007 13.2222 78.1192 13.2222C79.7784 13.2222 81.321 13.6241 82.747 14.4278C84.1988 15.2055 85.3655 16.3592 86.247 17.8889C87.1544 19.3926 87.6081 21.2203 87.6081 23.3722V37.3333H80.8414V24.2666C80.8414 22.9703 80.4525 21.8166 79.6747 20.8055C78.897 19.7944 77.7821 19.2889 76.3303 19.2889C75.1636 19.2889 74.1136 19.6907 73.1803 20.4944C72.2729 21.2722 71.8192 22.5037 71.8192 24.1889V37.3333H65.0525ZM102.787 37.9555C100.635 37.9555 98.6776 37.3981 96.9147 36.2833C95.1517 35.1685 93.7387 33.6907 92.6758 31.85C91.6387 29.9833 91.1202 27.9222 91.1202 25.6666C91.1202 23.4111 91.6387 21.35 92.6758 19.4833C93.7387 17.6166 95.1517 16.1389 96.9147 15.05C98.6776 13.9352 100.635 13.3778 102.787 13.3778C104.291 13.3778 105.665 13.65 106.909 14.1944C108.154 14.7129 109.217 15.4389 110.098 16.3722V14H115.931V37.3333H110.098V34.9611C109.217 35.8944 108.154 36.6333 106.909 37.1778C105.665 37.6963 104.291 37.9555 102.787 37.9555ZM103.604 32.0055C104.744 32.0055 105.781 31.7203 106.715 31.15C107.648 30.5796 108.387 29.8148 108.931 28.8555C109.502 27.8963 109.787 26.8333 109.787 25.6666C109.787 24.5 109.502 23.437 108.931 22.4778C108.387 21.5185 107.648 20.7537 106.715 20.1833C105.781 19.6129 104.744 19.3278 103.604 19.3278C102.463 19.3278 101.426 19.6129 100.492 20.1833C99.5591 20.7537 98.8073 21.5185 98.2369 22.4778C97.6924 23.437 97.4202 24.5 97.4202 25.6666C97.4202 26.8333 97.6924 27.8963 98.2369 28.8555C98.8073 29.8148 99.5591 30.5796 100.492 31.15C101.426 31.7203 102.463 32.0055 103.604 32.0055ZM136.569 37.3333L127.275 24.5L134.936 14H142.208L134.664 23.9166L144.541 37.3333H136.569ZM121.053 37.3333V-2.14577e-05H127.819V37.3333H121.053ZM156.053 37.9555C153.901 37.9555 151.943 37.3981 150.18 36.2833C148.417 35.1685 147.004 33.6907 145.941 31.85C144.904 29.9833 144.386 27.9222 144.386 25.6666C144.386 23.4111 144.904 21.35 145.941 19.4833C147.004 17.6166 148.417 16.1389 150.18 15.05C151.943 13.9352 153.901 13.3778 156.053 13.3778C157.556 13.3778 158.93 13.65 160.175 14.1944C161.419 14.7129 162.482 15.4389 163.364 16.3722V14H169.197V37.3333H163.364V34.9611C162.482 35.8944 161.419 36.6333 160.175 37.1778C158.93 37.6963 157.556 37.9555 156.053 37.9555ZM156.869 32.0055C158.01 32.0055 159.047 31.7203 159.98 31.15C160.914 30.5796 161.653 29.8148 162.197 28.8555C162.767 27.8963 163.053 26.8333 163.053 25.6666C163.053 24.5 162.767 23.437 162.197 22.4778C161.653 21.5185 160.914 20.7537 159.98 20.1833C159.047 19.6129 158.01 19.3278 156.869 19.3278C155.728 19.3278 154.691 19.6129 153.758 20.1833C152.825 20.7537 152.073 21.5185 151.503 22.4778C150.958 23.437 150.686 24.5 150.686 25.6666C150.686 26.8333 150.958 27.8963 151.503 28.8555C152.073 29.8148 152.825 30.5796 153.758 31.15C154.691 31.7203 155.728 32.0055 156.869 32.0055ZM177.585 38.1111C176.392 38.1111 175.394 37.7092 174.59 36.9055C173.787 36.1018 173.385 35.1037 173.385 33.9111C173.385 32.7185 173.787 31.7203 174.59 30.9166C175.394 30.1129 176.392 29.7111 177.585 29.7111C178.803 29.7111 179.801 30.1129 180.579 30.9166C181.383 31.7203 181.785 32.7185 181.785 33.9111C181.785 35.1037 181.383 36.1018 180.579 36.9055C179.801 37.7092 178.803 38.1111 177.585 38.1111Z" fill="white"/>
</svg>
