<svg xmlns="http://www.w3.org/2000/svg" width="56" height="56" viewBox="0 0 56 56" fill="none"><path d="M43.5422 12.574C40.4865 9.49925 36.5867 7.40095 32.337 6.54512C28.0874 5.68929 23.6794 6.11446 19.6717 7.76674C15.664 9.41902 12.2371 12.224 9.82544 15.8261C7.41375 19.4283 6.12585 23.6653 6.125 28.0003V40.2503C6.125 41.4106 6.58594 42.5234 7.40641 43.3439C8.22688 44.1643 9.33968 44.6253 10.5 44.6253H14C15.1603 44.6253 16.2731 44.1643 17.0936 43.3439C17.9141 42.5234 18.375 41.4106 18.375 40.2503V31.5003C18.375 30.34 17.9141 29.2272 17.0936 28.4067C16.2731 27.5862 15.1603 27.1253 14 27.1253H7.8925C8.11799 21.9439 10.335 17.0496 14.0813 13.4632C17.8275 9.87667 22.8137 7.87488 28 7.87528H28.1531C33.3169 7.9008 38.2722 9.91563 41.9886 13.5008C45.705 17.0861 47.8965 21.9657 48.1075 27.1253H42C40.8397 27.1253 39.7269 27.5862 38.9064 28.4067C38.0859 29.2272 37.625 30.34 37.625 31.5003V40.2503C37.625 41.4106 38.0859 42.5234 38.9064 43.3439C39.7269 44.1643 40.8397 44.6253 42 44.6253H48.125V45.5003C48.125 46.3046 47.9666 47.1011 47.6588 47.8442C47.351 48.5873 46.8998 49.2626 46.331 49.8313C45.7623 50.4001 45.0871 50.8512 44.3439 51.159C43.6008 51.4669 42.8043 51.6253 42 51.6253H29.75C29.5179 51.6253 29.2954 51.7175 29.1313 51.8816C28.9672 52.0457 28.875 52.2682 28.875 52.5003C28.875 52.7323 28.9672 52.9549 29.1313 53.119C29.2954 53.2831 29.5179 53.3753 29.75 53.3753H42C44.0886 53.3753 46.0916 52.5456 47.5685 51.0687C49.0453 49.5919 49.875 47.5889 49.875 45.5003V28.0003C49.8859 25.1388 49.3322 22.3033 48.2455 19.6562C47.1588 17.0091 45.5605 14.6024 43.5422 12.574ZM14 28.8753C14.6962 28.8753 15.3639 29.1518 15.8562 29.6441C16.3484 30.1364 16.625 30.8041 16.625 31.5003V40.2503C16.625 40.9465 16.3484 41.6142 15.8562 42.1064C15.3639 42.5987 14.6962 42.8753 14 42.8753H10.5C9.80381 42.8753 9.13613 42.5987 8.64384 42.1064C8.15156 41.6142 7.875 40.9465 7.875 40.2503V28.8753H14ZM39.375 40.2503V31.5003C39.375 30.8041 39.6516 30.1364 40.1438 29.6441C40.6361 29.1518 41.3038 28.8753 42 28.8753H48.125V42.8753H42C41.3038 42.8753 40.6361 42.5987 40.1438 42.1064C39.6516 41.6142 39.375 40.9465 39.375 40.2503Z" fill="black"></path></svg>